<?xml version="1.0" encoding="UTF-8" standalone="no"?>
<svg
   width="98.481659mm"
   height="99.6847mm"
   viewBox="-9.2604232 6.6145839 98.481656 99.6847"
   version="1.1"
   id="svg1"
   xmlns="http://www.w3.org/2000/svg">
  <defs id="defs1">
    <linearGradient id="amberGradient" x1="0%" y1="0%" x2="100%" y2="100%">
      <stop offset="0%" stop-color="#FFD700" /> <stop offset="100%" stop-color="#CC5500" /> </linearGradient>
  </defs>
  <g id="layer1" transform="rotate(90, 40, 56)">
    <path
       id="path4-2"
       style="fill:url(#amberGradient);fill-opacity:1;stroke-width:0.874083"
       d="m 88.058802,62.205696 c -4.301353,-0.190098 -9.405359,-3.555561 -11.274604,-7.434172 -0.270484,-0.56126 -0.560656,-1.006344 -0.64483,-0.989068 -0.08421,0.01711 -0.212685,0.654548 -0.285612,1.416144 -0.418994,4.376169 -3.38891,8.898174 -7.175915,10.926048 -0.672526,0.360129 -1.210533,0.715127 -1.195582,0.788897 0.01498,0.07376 0.487109,0.174898 1.049197,0.224749 4.45331,0.394976 9.164417,3.415046 11.240421,7.205686 0.367579,0.67118 0.732354,1.20718 0.810631,1.191111 0.07828,-0.01597 0.199726,-0.675953 0.269937,-1.466419 0.370583,-4.172689 3.123113,-8.427916 6.870894,-10.621913 0.840416,-0.49199 1.514337,-0.96124 1.497592,-1.042793 -0.01646,-0.08157 -0.53969,-0.170759 -1.162129,-0.19827 z M 57.970812,54.14617 c -5.89587,-0.46415 -10.44264,-2.13433 -14.46802,-5.31462 -2.41574,-1.90857 -5.37471,-5.41903 -6.4627,-7.66721 -0.38208,-0.78951 -0.85926,-1.45519 -1.06041,-1.47929 -0.20499,-0.0246 -0.43131,0.7857 -0.51495,1.84372 -0.19665,2.48725 -1.35599,6.50018 -2.58964,8.96381 -2.00364,4.00131 -5.94296,8.09744 -9.91505,10.30973 -1.11188,0.61928 -1.99986,1.23177 -1.97331,1.36111 0.0259,0.12946 0.93785,0.29639 2.02512,0.37122 6.56513,0.45185 13.64554,4.497812 17.74244,10.138624 0.70251,0.967217 1.56904,2.363925 1.92563,3.10377 0.3566,0.739844 0.76031,1.322202 0.89712,1.294113 0.1369,-0.02757 0.31427,-0.892292 0.39435,-1.920474 0.59285,-7.611761 5.76344,-15.670073 12.37214,-19.281883 2.02741,-1.10802 2.5401,-1.65076 1.62728,-1.72262 z m 14.947362,39.627444 c -3.152881,-0.260488 -6.310329,-2.267429 -8.082089,-5.13715 -0.65277,-1.057303 -0.840364,-1.235502 -0.890459,-0.845868 -0.24239,1.885716 -0.423239,2.636845 -0.925274,3.843209 -0.886477,2.130141 -2.218292,3.564309 -4.990322,5.373789 -0.498836,0.325634 -0.500924,0.349694 -0.03553,0.412025 4.130804,0.553377 7.079461,2.501152 9.158143,6.049531 0.200176,0.34172 0.301274,0.14511 0.513716,-0.99906 0.367443,-1.9791 1.141735,-3.882791 2.060174,-5.065254 0.862681,-1.110644 3.011431,-2.888181 3.649764,-3.019216 0.818873,-0.168101 0.548877,-0.528816 -0.458085,-0.612006 z M 81.47054,22.653148 c 2.61799,-0.14095 4.64959,-1.19999 6.11532,-3.18295 1.33773,-1.801 1.83545,-3.78963 1.52249,-5.98588 -0.33068,-2.19704 -1.40812,-3.9436596 -3.18769,-5.2880496 -1.6226,-1.20173 -3.25376,-1.71324 -4.91039,-1.55307 l -68.39327,0.0399 c -3.20385,-0.0137 -6.38984,0.76018 -9.56678,2.30092 -3.15518,1.5578896 -5.8289,3.7663296 -7.96115,6.6374696 -2.00003,2.6938 -3.30747,5.69277 -3.95387,8.98425 -0.64794,3.29017 -0.5,6.46806 0.44384,9.53366 l 19.48624,65.276684 c 0.24298,0.992018 0.6077,1.967058 1.11017,2.891438 0.49546,0.92636 1.19768,1.71839 2.09202,2.38609 1.801,1.33773 3.78963,1.83546 5.99361,1.50864 2.19705,-0.33068 3.93827,-1.40659 5.27824,-3.17908 1.59895,-2.15474 2.0166,-4.487907 1.23992,-7.024958 L 8.18888,33.473768 c -0.27147,-1.16465 -0.47784,-2.51093 -0.64045,-4.11442 -0.15191,-1.5657 0.14309,-2.84995 0.87726,-3.83888 0.73417,-0.98894 1.9012,-1.62249 3.43654,-1.96398 1.56214,-0.26747 2.87605,-0.46465 4.01537,-0.45502 z" />
  </g>
</svg>
